<svg width="136.03mm" height="79.071mm" version="1.1" viewBox="0 0 136.03 79.071" xmlns="http://www.w3.org/2000/svg">
	<g transform="translate(-33.513 -35.362)" fill="#fff">
		<path d="m101.53 82.895a31.538 31.538 0 0 0-31.538 31.538h7.2161a24.322 24.322 0 0 1 24.322-24.322 24.322 24.322 0 0 1 24.322 24.322h7.2161a31.538 31.538 0 0 0-31.538-31.538z" fill-opacity=".56682" style="paint-order:stroke fill markers"/>
		<path d="m101.53 90.111a24.322 24.322 0 0 0-24.322 24.322h7.7509a16.571 16.571 0 0 1 16.571-16.571 16.571 16.571 0 0 1 16.571 16.571h7.7509a24.322 24.322 0 0 0-24.322-24.322z" fill-opacity=".78341" style="paint-order:stroke fill markers"/>
		<path d="m101.53 97.862a16.571 16.571 0 0 0-16.571 16.571h33.141a16.571 16.571 0 0 0-16.571-16.571z" style="paint-order:stroke fill markers"/>
	</g>
	<g fill="#fff">
		<rect transform="rotate(-45)" x="-7.475" y="17.907" width="2.4054" height="2.4054" style="paint-order:stroke fill markers"/>
		<rect transform="rotate(-45)" x="-20.893" y="44.365" width="2.4054" height="2.4054" style="paint-order:stroke fill markers"/>
		<rect transform="rotate(-45)" x="21.017" y="44.131" width="3.7283" height="3.7283" style="paint-order:stroke fill markers"/>
		<rect transform="rotate(-45)" x="-.76596" y="45.594" width="4.6733" height="4.6733" style="paint-order:stroke fill markers"/>
		<rect transform="rotate(-45)" x="44.641" y="92.701" width="2.4054" height="2.4054" style="paint-order:stroke fill markers"/>
		<rect transform="rotate(-45)" x="29.339" y="74.247" width="4.5436" height="4.5436" style="paint-order:stroke fill markers"/>
		<rect transform="rotate(-45)" x="36.823" y="62.219" width="2.4054" height="2.4054" style="paint-order:stroke fill markers"/>
		<rect transform="rotate(-45)" x="58.872" y="72.242" width="4.5436" height="4.5436" style="paint-order:stroke fill markers"/>
		<rect transform="rotate(-45)" x="64.485" y="98.167" width="2.4054" height="2.4054" style="paint-order:stroke fill markers"/>
	</g>
</svg>
